<?xml version="1.0" encoding="UTF-8" standalone="no"?><!DOCTYPE svg PUBLIC "-//W3C//DTD SVG 1.1//EN" "http://www.w3.org/Graphics/SVG/1.1/DTD/svg11.dtd"><svg width="100%" height="100%" viewBox="0 0 1163 216" version="1.1" xmlns="http://www.w3.org/2000/svg" xmlns:xlink="http://www.w3.org/1999/xlink" xml:space="preserve" xmlns:serif="http://www.serif.com/" style="fill-rule:evenodd;clip-rule:evenodd;"><path d="M1165.92,-338.883c-0,-32.08 -26.045,-58.125 -58.125,-58.125l-1046.25,0c-32.08,0 -58.125,26.045 -58.125,58.125l-0,1180.62c-0,32.08 26.045,58.125 58.125,58.125l1046.25,0c32.08,0 58.125,-26.045 58.125,-58.125l-0,-1180.62Z" style="fill:url(#_Linear1);"/><path id="Path" d="M917.037,40.724l-650.152,-0c-2.972,-0 -5.802,0.283 -8.633,0.707c-2.83,0.425 -5.519,1.416 -8.067,2.689c-2.547,1.274 -4.811,2.972 -6.793,5.095c-1.981,1.981 -3.679,4.387 -4.953,6.793c-1.274,2.548 -2.123,5.236 -2.689,8.067c-0.566,2.83 -0.707,5.802 -0.849,8.633l0,106.849l0,0.707l0,1.982c0,2.83 0.283,5.802 0.849,8.633c0.425,2.83 1.415,5.519 2.689,8.066c1.274,2.548 2.972,4.812 4.953,6.793c1.982,1.982 4.246,3.68 6.793,4.954c2.548,1.273 5.237,2.122 8.067,2.689c2.831,0.424 5.803,0.707 8.633,0.707l658.926,0c2.831,0 5.803,-0.283 8.633,-0.707c2.831,-0.425 5.52,-1.416 8.067,-2.689c5.095,-2.548 9.199,-6.793 11.888,-11.747c1.274,-2.547 2.123,-5.236 2.689,-8.066c0.424,-2.831 0.707,-5.661 0.849,-8.633l-0,-109.538c-0,-2.972 -0.283,-5.803 -0.849,-8.633c-0.425,-2.831 -1.415,-5.519 -2.548,-8.067c-1.273,-2.547 -2.972,-4.812 -4.953,-6.793c-1.981,-1.981 -4.246,-3.68 -6.793,-4.953c-2.547,-1.274 -5.236,-2.123 -8.067,-2.689c-2.83,-0.425 -5.661,-0.708 -8.633,-0.708l-9.057,-0.141Z" style="fill:#010202;stroke:#222225;stroke-width:2.2px;"/><g id="US"><path d="M373.451,165.122c-2.83,6.51 -8.35,11.463 -15.001,13.444c-4.387,1.132 -8.916,1.557 -13.586,1.415l-50.382,0c-4.529,0.142 -9.058,-0.283 -13.586,-1.415c-6.793,-1.981 -12.313,-6.934 -15.002,-13.444c-1.698,-5.095 -2.406,-10.473 -2.264,-15.851l0,-50.382c-0.283,-5.378 0.425,-10.755 2.264,-15.85c2.831,-6.51 8.209,-11.463 15.002,-13.445c4.387,-1.132 8.916,-1.557 13.586,-1.415l50.382,0c4.528,-0.142 9.057,0.283 13.586,1.415c6.793,2.123 12.312,7.076 15.001,13.586c1.698,5.095 2.406,10.473 2.264,15.851l0,50.24c0.142,5.378 -0.566,10.756 -2.264,15.851Z" style="fill:url(#_Linear2);"/><path d="M373.451,165.122c-2.83,6.51 -8.35,11.463 -15.001,13.444c-4.387,1.132 -8.916,1.557 -13.586,1.415l-50.382,0c-4.529,0.142 -9.058,-0.283 -13.586,-1.415c-6.793,-1.981 -12.313,-6.934 -15.002,-13.444c-1.698,-5.095 -2.406,-10.473 -2.264,-15.851l0,-50.382c-0.283,-5.378 0.425,-10.755 2.264,-15.85c2.831,-6.51 8.209,-11.463 15.002,-13.445c4.387,-1.132 8.916,-1.557 13.586,-1.415l50.382,0c4.528,-0.142 9.057,0.283 13.586,1.415c6.793,2.123 12.312,7.076 15.001,13.586c1.698,5.095 2.406,10.473 2.264,15.851l0,50.24c0.142,5.378 -0.566,10.756 -2.264,15.851Z" style="fill:none;fill-rule:nonzero;"/><path d="M327.739,132.43c-2.264,-1.981 -5.094,-3.113 -8.066,-2.972c-2.972,-0.141 -5.944,0.849 -8.067,2.972c-0.849,0.849 -1.415,1.981 -1.557,3.255c-0.141,2.83 -0.141,5.661 0.142,8.491c0.283,3.397 0.849,8.067 1.556,12.596c0.284,2.123 0.708,4.245 1.274,6.368c1.132,2.689 3.821,4.246 6.652,3.821c2.83,0.283 5.519,-1.273 6.651,-3.821c0.566,-2.123 0.991,-4.245 1.274,-6.368c0.708,-4.67 1.274,-9.199 1.557,-12.596c0.283,-2.83 0.424,-5.661 0.141,-8.491c0,-1.274 -0.566,-2.406 -1.557,-3.255Zm-17.265,-15.709c-0,5.095 4.104,9.199 9.199,9.199c5.095,-0 9.199,-4.104 9.199,-9.199c-0,-5.095 -4.104,-9.199 -9.199,-9.199c-5.095,0 -9.199,4.104 -9.199,9.199Zm8.916,-36.23c-21.795,0 -39.343,17.691 -39.202,39.485c0,16.7 10.614,31.418 26.323,36.937c0.283,0.142 0.566,0 0.708,-0.283l-0,-0.283c-0.283,-1.273 -0.425,-2.689 -0.566,-3.962c-0,-0.425 -0.425,-0.85 -0.849,-1.133c-17.408,-7.5 -25.333,-27.738 -17.832,-45.145c7.5,-17.407 27.738,-25.333 45.145,-17.832c17.408,7.501 25.333,27.738 17.832,45.146c-3.396,7.925 -9.765,14.293 -17.832,17.831c-0.424,0.142 -0.707,0.567 -0.849,0.991c-0.141,1.274 -0.424,2.689 -0.566,3.963c0,0.283 0.142,0.566 0.425,0.566l0.283,-0c20.52,-7.218 31.276,-29.578 24.058,-50.099c-5.377,-15.709 -20.237,-26.182 -37.078,-26.182Zm-0.566,18.115c11.746,-0.424 21.652,8.775 22.077,20.521c0.283,6.227 -2.264,12.171 -6.793,16.416c-0.283,0.284 -0.566,0.85 -0.566,1.274c0.141,1.557 0.141,2.972 -0,4.529c-0,0.283 0.283,0.566 0.566,0.566c0.141,-0 0.141,-0 0.283,-0.142c12.029,-8.208 15.143,-24.624 6.935,-36.654c-8.209,-12.029 -24.625,-15.143 -36.655,-6.934c-12.029,8.208 -15.142,24.625 -6.934,36.654c1.84,2.689 4.245,5.095 6.934,6.934c0.283,0.142 0.566,0.142 0.708,-0.141c-0,-0.142 0.142,-0.142 0.142,-0.283c-0.142,-1.557 -0.142,-2.972 -0,-4.529c-0,-0.424 -0.142,-0.99 -0.567,-1.274c-8.632,-8.066 -9.057,-21.511 -0.99,-30.144c3.962,-4.245 9.199,-6.651 14.86,-6.793Z" style="fill:#fff;fill-rule:nonzero;"/><path d="M435.862,158.895l-21.087,-0l-5.094,14.859l-8.916,0l19.954,-55.193l9.199,-0l19.955,55.193l-9.057,0l-4.954,-14.859Zm-18.964,-6.935l16.841,0l-8.208,-24.2l-0.283,-0l-8.35,24.2Z" style="fill:#fff;fill-rule:nonzero;"/><path d="M493.037,153.658c0,12.454 -6.651,20.521 -16.841,20.521c-5.236,0.283 -10.19,-2.406 -12.595,-7.076l-0.142,-0l0,19.954l-8.35,0l0,-53.495l8.067,0l0,6.652l0.142,-0c2.688,-4.529 7.5,-7.359 12.878,-7.076c10.048,-0 16.841,8.066 16.841,20.52Zm-8.491,0c-0,-8.208 -4.246,-13.586 -10.614,-13.586c-6.369,0 -10.614,5.52 -10.614,13.586c-0,8.067 4.245,13.586 10.614,13.586c6.368,0 10.614,-5.377 10.614,-13.586Z" style="fill:#fff;fill-rule:nonzero;"/><path d="M537.334,153.658c-0,12.454 -6.652,20.521 -16.842,20.521c-5.236,0.283 -10.189,-2.406 -12.595,-7.076l-0.283,-0l-0,19.954l-8.208,0l-0,-53.495l8.066,0l0,6.652l0.142,-0c2.689,-4.529 7.501,-7.359 12.878,-7.076c10.048,-0 16.842,8.066 16.842,20.52Zm-8.492,0c0,-8.208 -4.245,-13.586 -10.614,-13.586c-6.368,0 -10.614,5.52 -10.614,13.586c-0,8.067 4.246,13.586 10.614,13.586c6.227,0 10.614,-5.377 10.614,-13.586Z" style="fill:#fff;fill-rule:nonzero;"/><rect x="543.985" y="118.561" width="8.208" height="55.194" style="fill:#fff;fill-rule:nonzero;"/><path d="M595.216,162.008c-1.132,7.359 -8.208,12.313 -17.407,12.313c-11.746,-0 -18.964,-7.784 -18.964,-20.38c-0,-12.595 7.359,-20.803 18.681,-20.803c11.322,-0 18.115,7.642 18.115,19.813l-0,2.83l-28.446,0l-0,0.566c-0,6.935 4.387,11.322 10.897,11.322c4.529,-0 8.208,-2.264 9.34,-5.661l7.784,0Zm-27.88,-12.029l20.238,-0c-0.142,-6.086 -4.104,-10.19 -9.907,-10.19c-5.661,-0.141 -10.189,4.387 -10.331,10.048l0,0.142Z" style="fill:#fff;fill-rule:nonzero;"/><path d="M639.795,118.561c9.482,-0.425 17.691,6.934 18.115,16.416l0,1.699c0,10.755 -7.642,18.256 -18.398,18.256l-11.887,-0l-0,18.822l-8.633,0l-0,-55.193l20.803,-0Zm-12.17,29.153l9.906,0c7.501,0 11.746,-3.962 11.746,-11.038c0,-6.935 -4.245,-11.039 -11.604,-11.039l-9.907,-0l0,22.077l-0.141,0Z" style="fill:#fff;fill-rule:nonzero;"/><path d="M660.882,153.658c0,-12.595 7.501,-20.662 19.106,-20.662c11.605,0 19.105,7.925 19.105,20.662c0,12.737 -7.359,20.663 -19.105,20.663c-11.747,-0 -19.106,-7.926 -19.106,-20.663Zm29.861,0c0,-8.774 -3.962,-13.869 -10.614,-13.869c-6.651,0 -10.614,5.095 -10.614,13.869c0,8.633 3.963,13.869 10.614,13.869c6.51,-0.141 10.614,-5.094 10.614,-13.869Z" style="fill:#fff;fill-rule:nonzero;"/><path d="M704.896,153.658c-0,-12.454 6.793,-20.52 16.841,-20.52c5.236,-0.283 10.189,2.547 12.595,7.076l0.142,-0l-0,-21.653l8.349,-0l0,55.193l-8.066,0l-0,-6.793l-0.142,0c-2.547,4.671 -7.5,7.501 -12.878,7.218c-9.907,-0 -16.841,-8.067 -16.841,-20.521Zm8.491,0c-0,8.209 4.246,13.586 10.614,13.586c6.369,0 10.614,-5.377 10.614,-13.586c0,-8.208 -4.245,-13.444 -10.614,-13.444c-6.368,-0 -10.614,5.236 -10.614,13.444Z" style="fill:#fff;fill-rule:nonzero;"/><path d="M778.062,147.29c-0.707,-4.529 -4.811,-7.784 -9.482,-7.359c-6.368,-0 -10.614,5.378 -10.614,13.727c0,8.35 4.246,13.728 10.614,13.728c5.095,-0 8.492,-2.547 9.482,-7.218l7.926,0c-0.991,8.492 -7.643,14.153 -17.408,14.153c-11.463,-0 -18.963,-7.784 -18.963,-20.663c-0,-12.878 7.5,-20.662 18.963,-20.662c10.332,0 16.7,6.652 17.549,14.294l-8.067,-0Z" style="fill:#fff;fill-rule:nonzero;"/><path d="M791.082,162.291c0,-7.076 5.378,-11.322 15.002,-11.888l11.039,-0.566l-0,-2.972c-0,-4.387 -2.972,-6.934 -7.926,-6.934c-4.528,-0 -7.783,2.264 -8.491,5.661l-7.784,-0c0.283,-7.218 6.935,-12.454 16.417,-12.454c9.482,-0 15.992,5.236 15.992,13.161l-0,27.455l-7.925,0l-0,-6.651l-0.142,-0c-2.547,4.529 -7.501,7.359 -12.737,7.359c-7.925,0 -13.445,-4.953 -13.445,-12.171Zm25.899,-3.255l-0,-3.396l-9.907,0.566c-4.953,0.283 -7.783,2.406 -7.783,5.944c-0,3.538 2.83,5.802 7.359,5.802c5.236,0.425 9.906,-3.68 10.331,-8.916Z" style="fill:#fff;fill-rule:nonzero;"/><path d="M848.257,132.996c8.916,0 15.426,4.953 15.426,12.029l-7.783,0c-0.284,-3.538 -3.397,-5.802 -7.926,-5.802c-4.528,0 -7.5,1.981 -7.5,5.236c-0,2.406 1.981,3.963 6.227,5.095l6.793,1.557c8.066,1.981 11.18,4.953 11.18,10.756c-0,7.217 -6.935,12.17 -16.7,12.17c-9.482,0 -15.85,-4.811 -16.416,-12.17l8.208,-0c0.566,3.821 3.68,5.943 8.774,5.943c5.095,0 8.067,-1.981 8.067,-5.236c0,-2.547 -1.557,-3.821 -5.802,-4.953l-7.218,-1.698c-7.217,-1.699 -11.039,-5.52 -11.039,-11.039c0,-6.935 6.369,-11.888 15.709,-11.888Z" style="fill:#fff;fill-rule:nonzero;"/><path d="M882.647,123.939l0,9.623l7.642,0l0,6.652l-7.642,-0l0,21.936c0,3.396 1.557,5.094 4.953,5.094c0.85,0 2.265,-0.141 2.689,-0.141l0,6.651c-1.556,0.283 -3.113,0.425 -4.528,0.425c-8.209,-0 -11.322,-3.113 -11.322,-10.897l-0,-23.068l-5.944,-0l-0,-6.369l5.802,0l0,-9.623l8.35,-0l0,-0.283Z" style="fill:#fff;fill-rule:nonzero;"/><path d="M912.508,132.996c8.916,0 15.426,4.953 15.426,12.029l-7.783,0c-0.284,-3.538 -3.397,-5.802 -7.926,-5.802c-4.528,0 -7.5,1.981 -7.5,5.236c-0,2.406 1.981,3.963 6.085,5.095l6.793,1.557c8.067,1.981 11.18,4.953 11.18,10.756c0,7.217 -6.934,12.17 -16.699,12.17c-9.765,0 -15.851,-4.811 -16.558,-12.17l8.349,-0c0.567,3.821 3.68,5.943 8.633,5.943c4.954,0 8.067,-1.981 8.067,-5.236c0,-2.547 -1.557,-3.821 -5.802,-4.953l-7.218,-1.698c-7.218,-1.699 -11.039,-5.52 -11.039,-11.039c0.283,-6.935 6.652,-11.888 15.992,-11.888Z" style="fill:#fff;fill-rule:nonzero;"/><path d="M421.286,100.305l-16.559,-0l0,-26.465l4.105,-0l-0,22.785l12.454,-0l-0,3.68Z" style="fill:#fff;fill-rule:nonzero;"/><path d="M426.097,74.406c0.142,-1.415 1.415,-2.406 2.831,-2.264c1.273,0.141 2.264,1.132 2.264,2.264c-0.141,1.415 -1.415,2.406 -2.83,2.264c-1.133,0 -2.123,-0.99 -2.265,-2.264Zm0.566,5.944l3.963,-0l-0,19.955l-3.963,-0l0,-19.955Z" style="fill:#fff;fill-rule:nonzero;"/><path d="M444.354,79.925c4.387,0 7.5,2.265 7.783,5.661l-3.821,0c-0.424,-1.415 -1.84,-2.406 -4.104,-2.406c-2.264,0 -3.963,0.991 -3.963,2.548c0,1.132 0.991,1.981 3.114,2.406l3.396,0.707c3.822,0.849 5.52,2.548 5.52,5.52c-0,3.821 -3.538,6.368 -8.35,6.368c-4.812,0 -7.925,-2.264 -8.208,-5.661l3.962,0c0.708,1.698 2.548,2.831 4.388,2.548c2.405,-0 4.245,-1.133 4.245,-2.689c0,-1.133 -0.99,-1.982 -2.972,-2.406l-3.538,-0.849c-3.821,-0.849 -5.519,-2.548 -5.519,-5.52c0.283,-3.679 3.538,-6.227 8.067,-6.227Z" style="fill:#fff;fill-rule:nonzero;"/><path d="M463.034,75.255l0,5.095l4.388,-0l-0,3.396l-4.388,0l0,10.332c0,2.122 0.85,2.972 2.831,2.972l1.557,-0l-0,3.255c-0.708,0.141 -1.416,0.141 -2.265,0.141c-4.387,0 -6.085,-1.557 -6.085,-5.378l-0,-11.463l-3.255,-0l-0,-3.255l3.255,-0l-0,-5.095l3.962,0Z" style="fill:#fff;fill-rule:nonzero;"/><path d="M489.358,94.927c-0.85,3.538 -4.105,5.802 -8.775,5.802c-5.802,0 -9.199,-3.963 -9.199,-10.331c0,-6.369 3.538,-10.473 9.199,-10.473c5.661,0 8.916,3.821 8.916,10.048l0,1.416l-13.869,-0l-0,0.283c-0.283,2.972 1.84,5.519 4.812,5.661l0.566,-0c1.981,0.283 3.821,-0.708 4.812,-2.406l3.538,-0Zm-13.87,-6.51l10.048,-0c0.142,-2.689 -1.839,-4.954 -4.528,-5.237l-0.425,0c-2.689,0 -5.095,2.265 -5.095,5.237Z" style="fill:#fff;fill-rule:nonzero;"/><path d="M494.877,80.35l3.821,-0l0,3.255l0.283,-0c0.991,-2.406 3.397,-3.821 5.944,-3.538c4.387,-0 6.935,2.689 6.935,7.501l-0,13.02l-3.963,-0l-0,-12.03c-0,-3.255 -1.415,-4.812 -4.387,-4.812c-2.548,-0.141 -4.67,1.84 -4.812,4.388l0,12.454l-3.963,-0l0.142,-20.238Z" style="fill:#fff;fill-rule:nonzero;"/><path d="M527.852,90.256c-0,-6.51 3.538,-10.331 9.482,-10.331c5.802,0 9.482,3.963 9.482,10.331c-0,6.369 -3.539,10.332 -9.482,10.332c-5.944,-0 -9.482,-3.822 -9.482,-10.332Zm14.859,0c0,-4.387 -1.981,-6.934 -5.377,-6.934c-3.397,-0 -5.378,2.547 -5.378,6.934c-0,4.388 1.981,6.935 5.378,6.935c3.396,0 5.377,-2.547 5.377,-6.935Z" style="fill:#fff;fill-rule:nonzero;"/><path d="M552.052,80.35l3.821,-0l-0,3.255l0.283,-0c0.991,-2.406 3.396,-3.821 5.944,-3.538c4.387,-0 6.934,2.689 6.934,7.501l0,13.02l-3.962,-0l-0,-12.03c-0,-3.255 -1.415,-4.812 -4.387,-4.812c-2.548,-0.141 -4.671,1.84 -4.812,4.388l-0,12.454l-3.963,-0l0.142,-20.238Z" style="fill:#fff;fill-rule:nonzero;"/></g><defs><linearGradient id="_Linear1" x1="0" y1="0" x2="1" y2="0" gradientUnits="userSpaceOnUse" gradientTransform="matrix(-7.84482e-13,-1296.88,1446.78,-8.75161e-13,525.298,899.867)"><stop offset="0" style="stop-color:#000;stop-opacity:1"/><stop offset="0.62" style="stop-color:#242424;stop-opacity:1"/><stop offset="0.82" style="stop-color:#7b7b7b;stop-opacity:1"/><stop offset="1" style="stop-color:#dadada;stop-opacity:1"/></linearGradient><linearGradient id="_Linear2" x1="0" y1="0" x2="1" y2="0" gradientUnits="userSpaceOnUse" gradientTransform="matrix(6.85453e-15,111.943,-111.943,6.85453e-15,319.656,68.0998)"><stop offset="0" style="stop-color:#ae6aa9;stop-opacity:1"/><stop offset="1" style="stop-color:#684092;stop-opacity:1"/></linearGradient></defs></svg>